<svg width="7410" height="3900" viewBox="0 0 7410 3900" fill="none" xmlns="http://www.w3.org/2000/svg">
<g clip-path="url(#clip0_716_279)">
<path d="M0 0H7410V3900H0V0Z" fill="#B22234"/>
<path d="M0 450H7410H0ZM7410 1050H0H7410ZM0 1650H7410H0ZM7410 2250H0H7410ZM0 2850H7410H0ZM7410 3450H0H7410Z" fill="black"/>
<path d="M0 450H7410M7410 1050H0M0 1650H7410M7410 2250H0M0 2850H7410M7410 3450H0" stroke="white" stroke-width="300"/>
<path d="M0 0H2964V2100H0V0Z" fill="#3C3B6E"/>
<path d="M247 90L317.534 307.082L132.874 172.918H361.127L176.466 307.082L247 90Z" fill="white"/>
<path d="M247 510L317.534 727.082L132.874 592.918H361.127L176.466 727.082L247 510Z" fill="white"/>
<path d="M247 930L317.534 1147.08L132.874 1012.92H361.127L176.466 1147.08L247 930Z" fill="white"/>
<path d="M247 1350L317.534 1567.08L132.874 1432.92H361.127L176.466 1567.08L247 1350Z" fill="white"/>
<path d="M247 1770L317.534 1987.08L132.874 1852.92H361.127L176.466 1987.08L247 1770Z" fill="white"/>
<path d="M494 300L564.534 517.082L379.874 382.918H608.127L423.466 517.082L494 300Z" fill="white"/>
<path d="M494 720L564.534 937.082L379.874 802.918H608.127L423.466 937.082L494 720Z" fill="white"/>
<path d="M494 1140L564.534 1357.08L379.874 1222.92H608.127L423.466 1357.08L494 1140Z" fill="white"/>
<path d="M494 1560L564.534 1777.08L379.874 1642.92H608.127L423.466 1777.08L494 1560Z" fill="white"/>
<path d="M741 90L811.534 307.082L626.874 172.918H855.127L670.466 307.082L741 90Z" fill="white"/>
<path d="M741 510L811.534 727.082L626.874 592.918H855.127L670.466 727.082L741 510Z" fill="white"/>
<path d="M741 930L811.534 1147.08L626.874 1012.92H855.127L670.466 1147.08L741 930Z" fill="white"/>
<path d="M741 1350L811.534 1567.08L626.874 1432.92H855.127L670.466 1567.08L741 1350Z" fill="white"/>
<path d="M741 1770L811.534 1987.08L626.874 1852.92H855.127L670.466 1987.08L741 1770Z" fill="white"/>
<path d="M988 300L1058.53 517.082L873.874 382.918H1102.13L917.466 517.082L988 300Z" fill="white"/>
<path d="M988 720L1058.53 937.082L873.874 802.918H1102.13L917.466 937.082L988 720Z" fill="white"/>
<path d="M988 1140L1058.53 1357.08L873.874 1222.92H1102.13L917.466 1357.08L988 1140Z" fill="white"/>
<path d="M988 1560L1058.53 1777.08L873.874 1642.92H1102.13L917.466 1777.08L988 1560Z" fill="white"/>
<path d="M1235 90L1305.53 307.082L1120.87 172.918H1349.13L1164.47 307.082L1235 90Z" fill="white"/>
<path d="M1235 510L1305.53 727.082L1120.87 592.918H1349.13L1164.47 727.082L1235 510Z" fill="white"/>
<path d="M1235 930L1305.53 1147.08L1120.87 1012.92H1349.13L1164.47 1147.08L1235 930Z" fill="white"/>
<path d="M1235 1350L1305.53 1567.08L1120.87 1432.92H1349.13L1164.47 1567.08L1235 1350Z" fill="white"/>
<path d="M1235 1770L1305.53 1987.08L1120.87 1852.92H1349.13L1164.47 1987.08L1235 1770Z" fill="white"/>
<path d="M1482 300L1552.53 517.082L1367.87 382.918H1596.13L1411.47 517.082L1482 300Z" fill="white"/>
<path d="M1482 720L1552.53 937.082L1367.87 802.918H1596.13L1411.47 937.082L1482 720Z" fill="white"/>
<path d="M1482 1140L1552.53 1357.08L1367.87 1222.92H1596.13L1411.47 1357.08L1482 1140Z" fill="white"/>
<path d="M1482 1560L1552.53 1777.08L1367.87 1642.92H1596.13L1411.47 1777.08L1482 1560Z" fill="white"/>
<path d="M1729 90L1799.53 307.082L1614.87 172.918H1843.13L1658.47 307.082L1729 90Z" fill="white"/>
<path d="M1729 510L1799.53 727.082L1614.87 592.918H1843.13L1658.47 727.082L1729 510Z" fill="white"/>
<path d="M1729 930L1799.53 1147.08L1614.87 1012.92H1843.13L1658.47 1147.08L1729 930Z" fill="white"/>
<path d="M1729 1350L1799.53 1567.08L1614.87 1432.92H1843.13L1658.47 1567.08L1729 1350Z" fill="white"/>
<path d="M1729 1770L1799.53 1987.08L1614.87 1852.92H1843.13L1658.47 1987.08L1729 1770Z" fill="white"/>
<path d="M1976 300L2046.53 517.082L1861.87 382.918H2090.13L1905.47 517.082L1976 300Z" fill="white"/>
<path d="M1976 720L2046.53 937.082L1861.87 802.918H2090.13L1905.47 937.082L1976 720Z" fill="white"/>
<path d="M1976 1140L2046.53 1357.08L1861.87 1222.92H2090.13L1905.47 1357.08L1976 1140Z" fill="white"/>
<path d="M1976 1560L2046.53 1777.08L1861.87 1642.92H2090.13L1905.47 1777.08L1976 1560Z" fill="white"/>
<path d="M2223 90L2293.53 307.082L2108.87 172.918H2337.13L2152.47 307.082L2223 90Z" fill="white"/>
<path d="M2223 510L2293.53 727.082L2108.87 592.918H2337.13L2152.47 727.082L2223 510Z" fill="white"/>
<path d="M2223 930L2293.53 1147.08L2108.87 1012.92H2337.13L2152.47 1147.08L2223 930Z" fill="white"/>
<path d="M2223 1350L2293.53 1567.08L2108.87 1432.92H2337.13L2152.47 1567.08L2223 1350Z" fill="white"/>
<path d="M2223 1770L2293.53 1987.08L2108.87 1852.92H2337.13L2152.47 1987.08L2223 1770Z" fill="white"/>
<path d="M2470 300L2540.53 517.082L2355.87 382.918H2584.13L2399.47 517.082L2470 300Z" fill="white"/>
<path d="M2470 720L2540.53 937.082L2355.87 802.918H2584.13L2399.47 937.082L2470 720Z" fill="white"/>
<path d="M2470 1140L2540.53 1357.08L2355.87 1222.92H2584.13L2399.47 1357.08L2470 1140Z" fill="white"/>
<path d="M2470 1560L2540.53 1777.08L2355.87 1642.92H2584.13L2399.47 1777.08L2470 1560Z" fill="white"/>
<path d="M2717 90L2787.53 307.082L2602.87 172.918H2831.13L2646.47 307.082L2717 90Z" fill="white"/>
<path d="M2717 510L2787.53 727.082L2602.87 592.918H2831.13L2646.47 727.082L2717 510Z" fill="white"/>
<path d="M2717 930L2787.53 1147.08L2602.87 1012.92H2831.13L2646.47 1147.08L2717 930Z" fill="white"/>
<path d="M2717 1350L2787.53 1567.08L2602.87 1432.92H2831.13L2646.47 1567.08L2717 1350Z" fill="white"/>
<path d="M2717 1770L2787.53 1987.08L2602.87 1852.92H2831.13L2646.47 1987.08L2717 1770Z" fill="white"/>
</g>
<defs>
<clipPath id="clip0_716_279">
<rect width="7410" height="3900" fill="white"/>
</clipPath>
</defs>
</svg>
